<?xml version="1.0" encoding="UTF-8" standalone="no"?>
<!-- Created with Inkscape (http://www.inkscape.org/) -->

<svg
   width="200"
   height="200"
   viewBox="0 0 52.916666 52.916668"
   version="1.1"
   id="svg3161"
   inkscape:version="1.2.1 (9c6d41e410, 2022-07-14)"
   sodipodi:docname="02_mainly_clear.svg"
   xmlns:inkscape="http://www.inkscape.org/namespaces/inkscape"
   xmlns:sodipodi="http://sodipodi.sourceforge.net/DTD/sodipodi-0.dtd"
   xmlns="http://www.w3.org/2000/svg"
   xmlns:svg="http://www.w3.org/2000/svg">
  <sodipodi:namedview
     id="namedview3163"
     pagecolor="#ffffff"
     bordercolor="#000000"
     borderopacity="0.25"
     inkscape:showpageshadow="2"
     inkscape:pageopacity="0.0"
     inkscape:pagecheckerboard="0"
     inkscape:deskcolor="#d1d1d1"
     inkscape:document-units="mm"
     showgrid="false"
     inkscape:zoom="1.4503086"
     inkscape:cx="104.11577"
     inkscape:cy="195.47564"
     inkscape:window-width="1920"
     inkscape:window-height="1001"
     inkscape:window-x="-9"
     inkscape:window-y="-9"
     inkscape:window-maximized="1"
     inkscape:current-layer="g14740" />
  <defs
     id="defs3158" />
  <g
     inkscape:label="Layer 1"
     inkscape:groupmode="layer"
     id="layer1"
     transform="translate(-63.3133,-96.722019)">
    <g
       id="g14740"
       transform="matrix(0.53336572,0,0,0.53336572,526.1724,170.78161)">
      <g
         id="g2788"
         transform="translate(-1.7102003)">
        <g
           id="g2777"
           transform="translate(-120.05606,-16.075882)">
          <rect
             style="fill:#fad913;fill-opacity:1;stroke-width:1.426;stroke-opacity:0.718085"
             id="rect2375-3"
             width="13.415917"
             height="6.1919618"
             x="-666.60681"
             y="-74.868271" />
          <rect
             style="fill:#fad913;fill-opacity:1;stroke-width:1.426;stroke-opacity:0.718085"
             id="rect2375-8-9"
             width="13.415917"
             height="6.1919618"
             x="-604.76868"
             y="289.52328"
             transform="rotate(30.966144)" />
          <rect
             style="fill:#fad913;fill-opacity:1;stroke-width:1.426;stroke-opacity:0.718085"
             id="rect2375-8-0-7-2"
             width="13.415917"
             height="6.1919618"
             x="-60.573505"
             y="685.3407"
             transform="rotate(88.946551)"
             inkscape:transform-center-x="-0.38699763"
             inkscape:transform-center-y="1.5479905" />
          <rect
             style="fill:#fad913;fill-opacity:1;stroke-width:1.426;stroke-opacity:0.718085"
             id="rect2375-8-0-7-4-7-2"
             width="13.415917"
             height="6.1919618"
             x="268.83578"
             y="620.65027"
             transform="rotate(121.99468)"
             inkscape:transform-center-x="0.51980981"
             inkscape:transform-center-y="1.5085934" />
          <rect
             style="fill:#fad913;fill-opacity:1;stroke-width:1.426;stroke-opacity:0.718085"
             id="rect2375-8-0-7-4-9-2-7"
             width="13.415917"
             height="6.1919618"
             x="530.1084"
             y="396.93204"
             transform="rotate(150.70661)"
             inkscape:transform-center-x="1.1806436"
             inkscape:transform-center-y="1.0733942" />
          <rect
             style="fill:#fad913;fill-opacity:1;stroke-width:1.426;stroke-opacity:0.718085"
             id="rect2375-8-0-7-4-9-1-8-9-3-5"
             width="13.415917"
             height="6.1919618"
             x="396.50262"
             y="-545.74146"
             transform="rotate(-122.70388)"
             inkscape:transform-center-x="1.1417052"
             inkscape:transform-center-y="-1.114699" />
          <rect
             style="fill:#fad913;fill-opacity:1;stroke-width:1.426;stroke-opacity:0.718085"
             id="rect2375-8-0-7-4-9-1-8-9-6-6"
             width="13.415917"
             height="6.1919618"
             x="104.67242"
             y="-690.94531"
             transform="rotate(-90.865821)"
             inkscape:transform-center-x="0.38190904"
             inkscape:transform-center-y="-1.5492561" />
        </g>
        <path
           id="path5802-9"
           style="opacity:0.802867;fill:#a0a0a0;fill-opacity:1;stroke-width:1.37239;stroke-opacity:0.718085"
           d="m -825.3034,-111.86781 -4.94147,0.49929 -3.95318,1.37244 -4.6945,3.11922 -2.22354,2.74439 -1.97659,3.24417 -1.60641,3.118729 -2.59421,-0.124445 -1.85287,0.374351 -2.22402,1.122539 -1.9766,1.996187 -2.09981,2.370526 -1.11202,2.495476 -0.98829,4.741069 0.74135,4.741068 1.85286,2.869324 2.71793,2.994272 4.57081,2.619932 h 42.37389 l 1.60591,-0.623743 3.21183,-2.120633 3.45927,-2.869828 1.97659,-3.618025 0.4944,-4.117315 -0.4944,-4.117325 -2.47048,-3.618016 -2.71794,-2.744875 -2.47097,-1.496891 -2.96489,-0.623742 h -1.60591 l -0.9883,-1.871744 -2.22402,-3.742961 -2.59422,-3.99238 -3.70623,-2.61993 -4.20012,-1.62184 z m -2.34725,6.48784 h 2.96487 l 2.84166,0.62376 2.96488,1.87174 2.09981,2.49498 1.72964,2.121123 0.98829,10.480216 0.86508,1.122549 1.60591,0.124948 h 1.4822 l 1.23573,-1.123042 0.24695,-1.871241 0.24696,-2.121126 h 1.60591 l 1.97658,0.623744 1.4827,1.622331 1.11202,1.371942 0.61761,2.121135 v 2.245582 l -0.86507,1.996691 -1.23524,1.746282 -1.60591,1.372436 -1.48269,0.623753 -1.60591,0.37434 h -38.17328 l -1.72964,-1.372434 -2.34727,-2.245581 -0.37066,-1.621839 v -4.242272 l 0.74134,-2.120632 2.84165,-2.37053 2.71744,-0.499298 2.84166,0.873639 2.59421,1.746786 2.1003,1.996188 1.48219,-0.124948 1.48268,-0.499298 0.74135,-1.247488 0.24695,-1.496889 -0.37067,-1.497393 -4.20012,-3.618012 0.61762,-1.996188 1.48219,-2.246084 1.97659,-2.37003 2.47098,-1.49739 z" />
      </g>
    </g>
  </g>
</svg>
