<?xml version="1.0" encoding="UTF-8" standalone="no"?>
<!-- Created with Inkscape (http://www.inkscape.org/) -->

<svg
   width="200"
   height="200"
   viewBox="0 0 52.916666 52.916668"
   version="1.1"
   id="svg3161"
   inkscape:version="1.2.1 (9c6d41e410, 2022-07-14)"
   sodipodi:docname="11_snow_showers.svg"
   xmlns:inkscape="http://www.inkscape.org/namespaces/inkscape"
   xmlns:sodipodi="http://sodipodi.sourceforge.net/DTD/sodipodi-0.dtd"
   xmlns="http://www.w3.org/2000/svg"
   xmlns:svg="http://www.w3.org/2000/svg">
  <sodipodi:namedview
     id="namedview3163"
     pagecolor="#ffffff"
     bordercolor="#000000"
     borderopacity="0.25"
     inkscape:showpageshadow="2"
     inkscape:pageopacity="0.0"
     inkscape:pagecheckerboard="0"
     inkscape:deskcolor="#d1d1d1"
     inkscape:document-units="mm"
     showgrid="false"
     inkscape:zoom="1.4503086"
     inkscape:cx="-89.636095"
     inkscape:cy="128.59332"
     inkscape:window-width="1920"
     inkscape:window-height="1001"
     inkscape:window-x="-9"
     inkscape:window-y="-9"
     inkscape:window-maximized="1"
     inkscape:current-layer="layer1" />
  <defs
     id="defs3158" />
  <g
     inkscape:label="Layer 1"
     inkscape:groupmode="layer"
     id="layer1"
     transform="translate(-93.409663,-114.50013)">
    <path
       id="path5802-92-9-6"
       style="fill:#000000;fill-opacity:1;stroke-width:0.765642;stroke-opacity:0.718085"
       d="m 120.24369,125.99337 -2.77042,0.27691 -2.21635,0.76218 -2.63197,1.73135 -1.24663,1.5238 -1.10816,1.80071 -0.90064,1.73134 -1.45444,-0.0688 -1.0388,0.20781 -1.2469,0.62318 -1.10817,1.10817 -1.17725,1.31599 -0.62345,1.38507 -0.55409,2.63225 0.41563,2.63197 1.03881,1.5929 1.5238,1.66198 2.56261,1.45444 h 6.28305 v -3.32451 h -5.6596 l -0.96972,-0.76163 -1.31599,-1.24663 -0.20782,-0.90035 v -2.35535 l 0.41564,-1.17698 1.59317,-1.31599 1.52352,-0.27717 1.59317,0.48471 1.45444,0.96973 1.17754,1.10816 0.83099,-0.0691 0.83126,-0.27746 0.41564,-0.69226 0.13845,-0.83099 -0.20782,-0.83154 -2.35479,-2.00825 0.34627,-1.10817 0.83099,-1.24718 1.10817,-1.31571 1.38535,-0.83099 2.00852,-0.76218 h 1.66226 l 1.59317,0.34655 1.66225,1.03908 1.17726,1.38507 0.96972,1.17726 0.55409,5.81804 0.48499,0.62345 0.90036,0.0694 h 0.83099 l 0.69281,-0.62345 0.13845,-1.03908 0.13846,-1.17726 h 0.90035 l 1.10817,0.34627 0.83126,0.90036 0.62346,0.76162 0.34626,1.17753 v 1.24662 l -0.48499,1.10873 -0.69254,0.96916 -0.90035,0.76191 -0.83127,0.34655 -0.90035,0.20754 h -3.9882 v 3.32451 h 5.71982 l 0.90035,-0.34628 1.80071,-1.17725 1.93944,-1.59289 1.10817,-2.00881 0.27717,-2.28542 -0.27717,-2.28598 -1.38508,-2.00825 -1.5238,-1.52381 -1.38535,-0.83098 -1.66226,-0.34628 h -0.90035 l -0.55409,-1.03935 -1.2469,-2.07762 -1.45444,-2.21662 -2.07789,-1.45443 -2.35479,-0.90036 z" />
    <path
       style="fill:#a0a0a0;fill-opacity:1;fill-rule:evenodd;stroke-width:0.188705"
       id="path10205"
       sodipodi:type="arc"
       sodipodi:cx="119.92277"
       sodipodi:cy="148.06726"
       sodipodi:rx="3.1281471"
       sodipodi:ry="3.082145"
       sodipodi:start="0"
       sodipodi:end="6.2824981"
       sodipodi:open="true"
       sodipodi:arc-type="arc"
       d="m 123.05091,148.06726 a 3.1281471,3.082145 0 0 1 -3.1276,3.08215 3.1281471,3.082145 0 0 1 -3.12869,-3.08109 3.1281471,3.082145 0 0 1 3.12654,-3.0832 3.1281471,3.082145 0 0 1 3.12975,3.08002" />
    <path
       style="fill:#a0a0a0;fill-opacity:1;fill-rule:evenodd;stroke-width:0.188705"
       id="path10205-3"
       sodipodi:type="arc"
       sodipodi:cx="112.08482"
       sodipodi:cy="153.57356"
       sodipodi:rx="3.1281471"
       sodipodi:ry="3.082145"
       sodipodi:start="0"
       sodipodi:end="6.2824981"
       sodipodi:open="true"
       sodipodi:arc-type="arc"
       d="m 115.21297,153.57356 a 3.1281471,3.082145 0 0 1 -3.12761,3.08215 3.1281471,3.082145 0 0 1 -3.12868,-3.08109 3.1281471,3.082145 0 0 1 3.12653,-3.0832 3.1281471,3.082145 0 0 1 3.12976,3.08002" />
  </g>
</svg>
