<?xml version="1.0" encoding="UTF-8" standalone="no"?>
<!-- Created with Inkscape (http://www.inkscape.org/) -->

<svg
   width="200"
   height="200"
   viewBox="0 0 52.916666 52.916669"
   version="1.1"
   id="svg3161"
   inkscape:version="1.2.1 (9c6d41e410, 2022-07-14)"
   sodipodi:docname="14_thunderstorms.svg"
   xmlns:inkscape="http://www.inkscape.org/namespaces/inkscape"
   xmlns:sodipodi="http://sodipodi.sourceforge.net/DTD/sodipodi-0.dtd"
   xmlns="http://www.w3.org/2000/svg"
   xmlns:svg="http://www.w3.org/2000/svg">
  <sodipodi:namedview
     id="namedview3163"
     pagecolor="#ffffff"
     bordercolor="#000000"
     borderopacity="0.25"
     inkscape:showpageshadow="2"
     inkscape:pageopacity="0.0"
     inkscape:pagecheckerboard="0"
     inkscape:deskcolor="#d1d1d1"
     inkscape:document-units="mm"
     showgrid="false"
     inkscape:zoom="1.4503086"
     inkscape:cx="-48.26559"
     inkscape:cy="146.52054"
     inkscape:window-width="1920"
     inkscape:window-height="1001"
     inkscape:window-x="-9"
     inkscape:window-y="-9"
     inkscape:window-maximized="1"
     inkscape:current-layer="layer1" />
  <defs
     id="defs3158" />
  <g
     inkscape:label="Layer 1"
     inkscape:groupmode="layer"
     id="layer1"
     transform="translate(-82.34962,-109.78115)">
    <g
       id="g20343"
       transform="matrix(0.50740321,0,0,0.50740321,398.42833,-28.374776)">
      <path
         id="path5802-92-9-2-5"
         style="fill:#000000;fill-opacity:1;stroke-width:1.426;stroke-opacity:0.718085"
         d="m -569.13095,299.96504 -5.15989,0.51574 -4.12792,1.41955 -4.90202,3.22461 -2.32183,2.83807 -2.06395,3.3538 -1.67742,3.22461 -2.70888,-0.12816 -1.93476,0.38705 -2.32234,1.16066 -2.06396,2.06395 -2.19263,2.45102 -1.16117,2.57968 -1.03198,4.90255 0.77411,4.90202 1.93477,2.96675 2.83807,3.09542 4.77283,2.70888 h 11.70213 v -6.19187 h -10.54096 l -1.80609,-1.41852 -2.45101,-2.32183 -0.38706,-1.6769 v -4.38681 l 0.77412,-2.19211 2.96726,-2.45102 2.83755,-0.51624 2.96726,0.90278 2.70888,1.8061 2.19315,2.06395 1.54771,-0.12867 1.54822,-0.51677 0.77412,-1.28932 0.25786,-1.54771 -0.38706,-1.54874 -4.38577,-3.74035 0.64492,-2.06395 1.54771,-2.32286 2.06395,-2.45049 2.58021,-1.54771 3.74085,-1.41955 h 3.09594 l 2.96726,0.64543 3.09593,1.93529 2.19264,2.57968 1.80609,2.19263 1.03198,10.83604 0.9033,1.16117 1.6769,0.12919 h 1.54771 l 1.29036,-1.16117 0.25786,-1.93529 0.25787,-2.19263 h 1.6769 l 2.06396,0.64493 1.54822,1.6769 1.16117,1.41851 0.64492,2.19315 v 2.32182 l -0.9033,2.06499 -1.28984,1.80506 -1.6769,1.41904 -1.54823,0.64544 -1.6769,0.38654 h -7.42797 v 6.19187 h 10.6531 l 1.6769,-0.64493 3.3538,-2.19263 3.61218,-2.96674 2.06396,-3.74138 0.51624,-4.25658 -0.51624,-4.25762 -2.57969,-3.74034 -2.83807,-2.83807 -2.5802,-1.54771 -3.09594,-0.64493 h -1.6769 l -1.03198,-1.93579 -2.32234,-3.86954 -2.70888,-4.12843 -3.87004,-2.70887 -4.38578,-1.6769 z" />
      <path
         style="fill:#87f1f1;fill-opacity:1;stroke-width:1.426;stroke-opacity:0.718085"
         d="m -571.7108,330.98908 9.15894,-0.387 -8.77194,13.28692 h 9.93294 l -15.47991,23.60686 -0.90299,-0.903 6.44996,-16.6409 -0.129,-1.03199 -9.80394,-0.903 z"
         id="path10588" />
    </g>
  </g>
</svg>
